# xmcd
#
# Track frame offsets: 
#        183
#        44133
#        91008
#        106683
#        135933
#        170808
#        196233
#        214883
#
# Disc length: 3204 seconds
#
# Revision: 7
# Processed by: cddbd v1.5.2PL0 Copyright (c) Steve Scherf et al.
# Submitted via: ExactAudioCopy v0.99pb5
#
DISCID=690c8208
DTITLE=Guarneri Quartet - Beethoven - String Quartets Op. 18 Nos. 1 and 
DTITLE=2
DYEAR=1987
DGENRE=Classical
TTITLE0=01. String Quartet in F major Op. 18 No. 1 - 1. Allegro con br
TTITLE0=io
TTITLE1=02. String Quartet in F major Op. 18 No. 1 - 2. Adagio affetuo
TTITLE1=so ed appassionato
TTITLE2=03. String Quartet in F major Op. 18 No. 1 - 3. Scherzo, alleg
TTITLE2=ro molto
TTITLE3=04. String Quartet in F major Op. 18 No. 1 - 4. Allegro
TTITLE4=05. String Quartet in G major Op. 18 No. 2 - 1. Allegro
TTITLE5=06. String Quartet in G major Op. 18 No. 2 - 2. Adagio cantabi
TTITLE5=le
TTITLE6=07. String Quartet in G major Op. 18 No. 2 - 3. Scherzo, alleg
TTITLE6=ro
TTITLE7=08. String Quartet in G major Op. 18 No. 2 - 4. Allegro molto 
TTITLE7=quasi presto
EXTD=YEAR: 1987
EXTT0=
EXTT1=
EXTT2=
EXTT3=
EXTT4=
EXTT5=
EXTT6=
EXTT7=
PLAYORDER=
